<mxfile host="app.diagrams.net" modified="2023-05-30T23:33:31.226Z" agent="Mozilla/5.0 (Windows NT 10.0; Win64; x64) AppleWebKit/537.36 (KHTML, like Gecko) Chrome/113.0.0.0 Safari/537.36" etag="3YEH9BIBPGyOaiubDQJf" version="21.3.6" type="github">
  <diagram name="Page-1" id="r7Gs-bn6Ids_fZ3F6snc">
    <mxGraphModel dx="1987" dy="3051" grid="1" gridSize="10" guides="1" tooltips="1" connect="1" arrows="1" fold="1" page="1" pageScale="1" pageWidth="1200" pageHeight="1920" math="0" shadow="0">
      <root>
        <mxCell id="0" />
        <mxCell id="1" parent="0" />
        <mxCell id="8cZ1Y1rE4LoA5VIZQ3jX-1" value="" style="ellipse;whiteSpace=wrap;html=1;" vertex="1" parent="1">
          <mxGeometry x="145" y="-1910" width="100" height="40" as="geometry" />
        </mxCell>
        <mxCell id="8cZ1Y1rE4LoA5VIZQ3jX-2" value="" style="endArrow=classic;html=1;rounded=0;entryX=0.5;entryY=0;entryDx=0;entryDy=0;exitX=0.5;exitY=1;exitDx=0;exitDy=0;" edge="1" parent="1" source="8cZ1Y1rE4LoA5VIZQ3jX-1" target="8cZ1Y1rE4LoA5VIZQ3jX-3">
          <mxGeometry width="50" height="50" relative="1" as="geometry">
            <mxPoint x="194.71000000000004" y="-1870" as="sourcePoint" />
            <mxPoint x="194.71000000000004" y="-1840" as="targetPoint" />
          </mxGeometry>
        </mxCell>
        <mxCell id="8cZ1Y1rE4LoA5VIZQ3jX-3" value="Ingrese el cumpleaños de la Empresa &#39;ddmmyyy&#39;" style="shape=document;whiteSpace=wrap;html=1;boundedLbl=1;" vertex="1" parent="1">
          <mxGeometry x="120" y="-1830" width="150" height="60" as="geometry" />
        </mxCell>
        <mxCell id="8cZ1Y1rE4LoA5VIZQ3jX-4" value="Cumpleaños Empresa (CE)" style="shape=parallelogram;perimeter=parallelogramPerimeter;whiteSpace=wrap;html=1;fixedSize=1;" vertex="1" parent="1">
          <mxGeometry x="135" y="-1740" width="120" height="60" as="geometry" />
        </mxCell>
        <mxCell id="8cZ1Y1rE4LoA5VIZQ3jX-5" value="" style="endArrow=classic;html=1;rounded=0;entryX=0.5;entryY=0;entryDx=0;entryDy=0;exitX=0.501;exitY=0.821;exitDx=0;exitDy=0;exitPerimeter=0;" edge="1" parent="1" source="8cZ1Y1rE4LoA5VIZQ3jX-3" target="8cZ1Y1rE4LoA5VIZQ3jX-4">
          <mxGeometry width="50" height="50" relative="1" as="geometry">
            <mxPoint x="194.71000000000004" y="-1780" as="sourcePoint" />
            <mxPoint x="194.71000000000004" y="-1750" as="targetPoint" />
          </mxGeometry>
        </mxCell>
        <mxCell id="8cZ1Y1rE4LoA5VIZQ3jX-7" value="ID Cliente (K) = 1" style="shape=parallelogram;perimeter=parallelogramPerimeter;whiteSpace=wrap;html=1;fixedSize=1;" vertex="1" parent="1">
          <mxGeometry x="135" y="-1530" width="120" height="60" as="geometry" />
        </mxCell>
        <mxCell id="8cZ1Y1rE4LoA5VIZQ3jX-8" value="" style="endArrow=classic;html=1;rounded=0;exitX=0.5;exitY=1;exitDx=0;exitDy=0;entryX=0.5;entryY=0;entryDx=0;entryDy=0;" edge="1" parent="1" source="8cZ1Y1rE4LoA5VIZQ3jX-4" target="8cZ1Y1rE4LoA5VIZQ3jX-66">
          <mxGeometry width="50" height="50" relative="1" as="geometry">
            <mxPoint x="194.71000000000004" y="-1680" as="sourcePoint" />
            <mxPoint x="195" y="-1650" as="targetPoint" />
          </mxGeometry>
        </mxCell>
        <mxCell id="8cZ1Y1rE4LoA5VIZQ3jX-9" value="" style="endArrow=classic;html=1;rounded=0;entryX=0.5;entryY=0;entryDx=0;entryDy=0;exitX=0.5;exitY=1;exitDx=0;exitDy=0;" edge="1" parent="1" source="8cZ1Y1rE4LoA5VIZQ3jX-7" target="8cZ1Y1rE4LoA5VIZQ3jX-10">
          <mxGeometry width="50" height="50" relative="1" as="geometry">
            <mxPoint x="195" y="-1480" as="sourcePoint" />
            <mxPoint x="194.71000000000004" y="-1440" as="targetPoint" />
          </mxGeometry>
        </mxCell>
        <mxCell id="8cZ1Y1rE4LoA5VIZQ3jX-10" value="Ingrese el cumpleaños del Cliente &#39;ddmmyyy&#39;" style="shape=document;whiteSpace=wrap;html=1;boundedLbl=1;" vertex="1" parent="1">
          <mxGeometry x="120" y="-1430" width="150" height="60" as="geometry" />
        </mxCell>
        <mxCell id="8cZ1Y1rE4LoA5VIZQ3jX-11" value="Cumpleaños &lt;br&gt;Cliente (CC)" style="shape=parallelogram;perimeter=parallelogramPerimeter;whiteSpace=wrap;html=1;fixedSize=1;" vertex="1" parent="1">
          <mxGeometry x="135" y="-1300" width="120" height="60" as="geometry" />
        </mxCell>
        <mxCell id="8cZ1Y1rE4LoA5VIZQ3jX-12" value="" style="endArrow=classic;html=1;rounded=0;exitX=0.501;exitY=0.887;exitDx=0;exitDy=0;exitPerimeter=0;entryX=0.5;entryY=0;entryDx=0;entryDy=0;" edge="1" parent="1" source="8cZ1Y1rE4LoA5VIZQ3jX-10" target="8cZ1Y1rE4LoA5VIZQ3jX-11">
          <mxGeometry width="50" height="50" relative="1" as="geometry">
            <mxPoint x="194.71000000000004" y="-1380" as="sourcePoint" />
            <mxPoint x="194.71000000000004" y="-1350" as="targetPoint" />
          </mxGeometry>
        </mxCell>
        <mxCell id="8cZ1Y1rE4LoA5VIZQ3jX-13" value="CC &amp;lt;&amp;gt; 0" style="rhombus;whiteSpace=wrap;html=1;fontSize=10;" vertex="1" parent="1">
          <mxGeometry x="155" y="-1200" width="80" height="80" as="geometry" />
        </mxCell>
        <mxCell id="8cZ1Y1rE4LoA5VIZQ3jX-15" value="" style="endArrow=classic;html=1;rounded=0;exitX=0.5;exitY=1;exitDx=0;exitDy=0;entryX=0.513;entryY=-0.041;entryDx=0;entryDy=0;entryPerimeter=0;" edge="1" parent="1" source="8cZ1Y1rE4LoA5VIZQ3jX-11" target="8cZ1Y1rE4LoA5VIZQ3jX-13">
          <mxGeometry width="50" height="50" relative="1" as="geometry">
            <mxPoint x="195" y="-1240" as="sourcePoint" />
            <mxPoint x="194.71000000000004" y="-1210" as="targetPoint" />
          </mxGeometry>
        </mxCell>
        <mxCell id="8cZ1Y1rE4LoA5VIZQ3jX-47" value="CC(dd) &amp;gt;= 1 y &amp;lt;= 31&lt;br&gt;CC(mm) &amp;gt;= 1 y &amp;lt;=12" style="rhombus;whiteSpace=wrap;html=1;" vertex="1" parent="1">
          <mxGeometry x="280" y="-1205" width="205" height="90" as="geometry" />
        </mxCell>
        <mxCell id="8cZ1Y1rE4LoA5VIZQ3jX-48" value="" style="endArrow=classic;html=1;rounded=0;exitX=1;exitY=0.5;exitDx=0;exitDy=0;entryX=0;entryY=0.5;entryDx=0;entryDy=0;" edge="1" parent="1" source="8cZ1Y1rE4LoA5VIZQ3jX-13" target="8cZ1Y1rE4LoA5VIZQ3jX-47">
          <mxGeometry width="50" height="50" relative="1" as="geometry">
            <mxPoint x="235" y="-1160.5" as="sourcePoint" />
            <mxPoint x="270" y="-1160" as="targetPoint" />
          </mxGeometry>
        </mxCell>
        <mxCell id="8cZ1Y1rE4LoA5VIZQ3jX-50" value="" style="endArrow=classic;html=1;rounded=0;exitX=0.5;exitY=1;exitDx=0;exitDy=0;entryX=0.5;entryY=0;entryDx=0;entryDy=0;" edge="1" parent="1" source="8cZ1Y1rE4LoA5VIZQ3jX-47" target="8cZ1Y1rE4LoA5VIZQ3jX-52">
          <mxGeometry width="50" height="50" relative="1" as="geometry">
            <mxPoint x="382.1600000000001" y="-1110" as="sourcePoint" />
            <mxPoint x="382.1600000000001" y="-1080" as="targetPoint" />
          </mxGeometry>
        </mxCell>
        <mxCell id="8cZ1Y1rE4LoA5VIZQ3jX-52" value="La fecha no es valida" style="shape=document;whiteSpace=wrap;html=1;boundedLbl=1;" vertex="1" parent="1">
          <mxGeometry x="307.5" y="-1020" width="150" height="60" as="geometry" />
        </mxCell>
        <mxCell id="8cZ1Y1rE4LoA5VIZQ3jX-53" value="CC(ddmm) = CE(ddmm)" style="rhombus;whiteSpace=wrap;html=1;" vertex="1" parent="1">
          <mxGeometry x="800" y="-1205" width="205" height="90" as="geometry" />
        </mxCell>
        <mxCell id="8cZ1Y1rE4LoA5VIZQ3jX-54" value="" style="endArrow=classic;html=1;rounded=0;entryX=0;entryY=0.5;entryDx=0;entryDy=0;exitX=1;exitY=0.5;exitDx=0;exitDy=0;" edge="1" parent="1" source="8cZ1Y1rE4LoA5VIZQ3jX-47" target="8cZ1Y1rE4LoA5VIZQ3jX-60">
          <mxGeometry width="50" height="50" relative="1" as="geometry">
            <mxPoint x="485" y="-1160.5" as="sourcePoint" />
            <mxPoint x="520" y="-1160" as="targetPoint" />
          </mxGeometry>
        </mxCell>
        <mxCell id="8cZ1Y1rE4LoA5VIZQ3jX-55" value="" style="endArrow=classic;html=1;rounded=0;exitX=0.5;exitY=0;exitDx=0;exitDy=0;entryX=0.503;entryY=0.922;entryDx=0;entryDy=0;entryPerimeter=0;" edge="1" parent="1" source="8cZ1Y1rE4LoA5VIZQ3jX-53" target="8cZ1Y1rE4LoA5VIZQ3jX-57">
          <mxGeometry width="50" height="50" relative="1" as="geometry">
            <mxPoint x="902.1599999999999" y="-1210" as="sourcePoint" />
            <mxPoint x="902.6500000000001" y="-1266.36" as="targetPoint" />
          </mxGeometry>
        </mxCell>
        <mxCell id="8cZ1Y1rE4LoA5VIZQ3jX-57" value="El Cliente NO cumple el mismo día que la empresa" style="shape=document;whiteSpace=wrap;html=1;boundedLbl=1;" vertex="1" parent="1">
          <mxGeometry x="827.5" y="-1360" width="150" height="60" as="geometry" />
        </mxCell>
        <mxCell id="8cZ1Y1rE4LoA5VIZQ3jX-58" value="" style="endArrow=classic;html=1;rounded=0;exitX=0.5;exitY=0;exitDx=0;exitDy=0;entryX=1;entryY=0.5;entryDx=0;entryDy=0;" edge="1" parent="1" source="8cZ1Y1rE4LoA5VIZQ3jX-57" target="8cZ1Y1rE4LoA5VIZQ3jX-62">
          <mxGeometry width="50" height="50" relative="1" as="geometry">
            <mxPoint x="340" y="-1340" as="sourcePoint" />
            <mxPoint x="690" y="-1400" as="targetPoint" />
            <Array as="points">
              <mxPoint x="903" y="-1400" />
            </Array>
          </mxGeometry>
        </mxCell>
        <mxCell id="8cZ1Y1rE4LoA5VIZQ3jX-59" value="CV = K" style="shape=parallelogram;perimeter=parallelogramPerimeter;whiteSpace=wrap;html=1;fixedSize=1;" vertex="1" parent="1">
          <mxGeometry x="540" y="-1070" width="120" height="60" as="geometry" />
        </mxCell>
        <mxCell id="8cZ1Y1rE4LoA5VIZQ3jX-60" value="CC &amp;lt; CV" style="rhombus;whiteSpace=wrap;html=1;" vertex="1" parent="1">
          <mxGeometry x="555" y="-1205" width="90" height="90" as="geometry" />
        </mxCell>
        <mxCell id="8cZ1Y1rE4LoA5VIZQ3jX-62" value="K = K +1" style="shape=parallelogram;perimeter=parallelogramPerimeter;whiteSpace=wrap;html=1;fixedSize=1;" vertex="1" parent="1">
          <mxGeometry x="570" y="-1430" width="120" height="60" as="geometry" />
        </mxCell>
        <mxCell id="8cZ1Y1rE4LoA5VIZQ3jX-63" value="" style="endArrow=classic;html=1;rounded=0;exitX=0;exitY=0.5;exitDx=0;exitDy=0;entryX=1;entryY=0.5;entryDx=0;entryDy=0;" edge="1" parent="1" source="8cZ1Y1rE4LoA5VIZQ3jX-62" target="8cZ1Y1rE4LoA5VIZQ3jX-10">
          <mxGeometry width="50" height="50" relative="1" as="geometry">
            <mxPoint x="520" y="-1490" as="sourcePoint" />
            <mxPoint x="290" y="-1400" as="targetPoint" />
          </mxGeometry>
        </mxCell>
        <mxCell id="8cZ1Y1rE4LoA5VIZQ3jX-66" value="Cliente mas &lt;br&gt;viejo (CV)" style="shape=parallelogram;perimeter=parallelogramPerimeter;whiteSpace=wrap;html=1;fixedSize=1;" vertex="1" parent="1">
          <mxGeometry x="135" y="-1650" width="120" height="60" as="geometry" />
        </mxCell>
        <mxCell id="8cZ1Y1rE4LoA5VIZQ3jX-67" value="" style="endArrow=classic;html=1;rounded=0;exitX=0.469;exitY=1.021;exitDx=0;exitDy=0;exitPerimeter=0;entryX=0.464;entryY=0.002;entryDx=0;entryDy=0;entryPerimeter=0;" edge="1" parent="1" source="8cZ1Y1rE4LoA5VIZQ3jX-66" target="8cZ1Y1rE4LoA5VIZQ3jX-7">
          <mxGeometry width="50" height="50" relative="1" as="geometry">
            <mxPoint x="180" y="-1610" as="sourcePoint" />
            <mxPoint x="230" y="-1660" as="targetPoint" />
          </mxGeometry>
        </mxCell>
        <mxCell id="8cZ1Y1rE4LoA5VIZQ3jX-70" value="" style="endArrow=classic;html=1;rounded=0;exitX=0.5;exitY=1;exitDx=0;exitDy=0;entryX=0.5;entryY=0;entryDx=0;entryDy=0;" edge="1" parent="1" source="8cZ1Y1rE4LoA5VIZQ3jX-60" target="8cZ1Y1rE4LoA5VIZQ3jX-59">
          <mxGeometry width="50" height="50" relative="1" as="geometry">
            <mxPoint x="585" y="-1060" as="sourcePoint" />
            <mxPoint x="635" y="-1110" as="targetPoint" />
          </mxGeometry>
        </mxCell>
        <mxCell id="8cZ1Y1rE4LoA5VIZQ3jX-75" value="" style="endArrow=classic;html=1;rounded=0;exitX=1;exitY=0.5;exitDx=0;exitDy=0;entryX=0;entryY=0.5;entryDx=0;entryDy=0;" edge="1" parent="1" source="8cZ1Y1rE4LoA5VIZQ3jX-59" target="8cZ1Y1rE4LoA5VIZQ3jX-53">
          <mxGeometry width="50" height="50" relative="1" as="geometry">
            <mxPoint x="550" y="-990" as="sourcePoint" />
            <mxPoint x="600" y="-1040" as="targetPoint" />
            <Array as="points">
              <mxPoint x="740" y="-1040" />
            </Array>
          </mxGeometry>
        </mxCell>
        <mxCell id="8cZ1Y1rE4LoA5VIZQ3jX-76" value="" style="endArrow=classic;html=1;rounded=0;exitX=1;exitY=0.5;exitDx=0;exitDy=0;entryX=0;entryY=0.5;entryDx=0;entryDy=0;" edge="1" parent="1" source="8cZ1Y1rE4LoA5VIZQ3jX-60" target="8cZ1Y1rE4LoA5VIZQ3jX-53">
          <mxGeometry width="50" height="50" relative="1" as="geometry">
            <mxPoint x="650" y="-1280.0000000000002" as="sourcePoint" />
            <mxPoint x="600" y="-1040" as="targetPoint" />
            <Array as="points" />
          </mxGeometry>
        </mxCell>
        <mxCell id="8cZ1Y1rE4LoA5VIZQ3jX-78" value="El Cliente SI cumple el mismo día que la empresa" style="shape=document;whiteSpace=wrap;html=1;boundedLbl=1;" vertex="1" parent="1">
          <mxGeometry x="827.5" y="-1020" width="150" height="60" as="geometry" />
        </mxCell>
        <mxCell id="8cZ1Y1rE4LoA5VIZQ3jX-79" value="" style="endArrow=classic;html=1;rounded=0;exitX=0.5;exitY=1;exitDx=0;exitDy=0;entryX=0.5;entryY=0;entryDx=0;entryDy=0;" edge="1" parent="1" source="8cZ1Y1rE4LoA5VIZQ3jX-53" target="8cZ1Y1rE4LoA5VIZQ3jX-78">
          <mxGeometry width="50" height="50" relative="1" as="geometry">
            <mxPoint x="770" y="-910" as="sourcePoint" />
            <mxPoint x="860" y="-920" as="targetPoint" />
          </mxGeometry>
        </mxCell>
        <mxCell id="8cZ1Y1rE4LoA5VIZQ3jX-80" value="" style="endArrow=classic;html=1;rounded=0;exitX=0.483;exitY=0.978;exitDx=0;exitDy=0;exitPerimeter=0;entryX=1;entryY=0;entryDx=0;entryDy=0;" edge="1" parent="1" source="8cZ1Y1rE4LoA5VIZQ3jX-78" target="8cZ1Y1rE4LoA5VIZQ3jX-62">
          <mxGeometry width="50" height="50" relative="1" as="geometry">
            <mxPoint x="770" y="-950" as="sourcePoint" />
            <mxPoint x="820" y="-1000" as="targetPoint" />
            <Array as="points">
              <mxPoint x="900" y="-880" />
              <mxPoint x="1090" y="-880" />
              <mxPoint x="1090" y="-1480" />
              <mxPoint x="770" y="-1480" />
            </Array>
          </mxGeometry>
        </mxCell>
        <mxCell id="8cZ1Y1rE4LoA5VIZQ3jX-81" value="" style="endArrow=classic;html=1;rounded=0;exitX=0.5;exitY=1;exitDx=0;exitDy=0;" edge="1" parent="1" source="8cZ1Y1rE4LoA5VIZQ3jX-13" target="8cZ1Y1rE4LoA5VIZQ3jX-82">
          <mxGeometry width="50" height="50" relative="1" as="geometry">
            <mxPoint x="530" y="-930" as="sourcePoint" />
            <mxPoint x="195" y="-910" as="targetPoint" />
          </mxGeometry>
        </mxCell>
        <mxCell id="8cZ1Y1rE4LoA5VIZQ3jX-82" value="El Cliente mas viejo es el Cliente CV" style="shape=document;whiteSpace=wrap;html=1;boundedLbl=1;" vertex="1" parent="1">
          <mxGeometry x="135" y="-950" width="120" height="80" as="geometry" />
        </mxCell>
        <mxCell id="8cZ1Y1rE4LoA5VIZQ3jX-91" value="" style="endArrow=classic;html=1;rounded=0;exitX=0.514;exitY=0.893;exitDx=0;exitDy=0;exitPerimeter=0;entryX=1;entryY=0.5;entryDx=0;entryDy=0;" edge="1" parent="1" source="8cZ1Y1rE4LoA5VIZQ3jX-52" target="8cZ1Y1rE4LoA5VIZQ3jX-82">
          <mxGeometry width="50" height="50" relative="1" as="geometry">
            <mxPoint x="610" y="-1030" as="sourcePoint" />
            <mxPoint x="660" y="-1080" as="targetPoint" />
            <Array as="points">
              <mxPoint x="385" y="-910" />
            </Array>
          </mxGeometry>
        </mxCell>
        <mxCell id="8cZ1Y1rE4LoA5VIZQ3jX-92" value="" style="endArrow=classic;html=1;rounded=0;exitX=0.495;exitY=0.916;exitDx=0;exitDy=0;exitPerimeter=0;entryX=0.5;entryY=0;entryDx=0;entryDy=0;" edge="1" parent="1" source="8cZ1Y1rE4LoA5VIZQ3jX-82" target="8cZ1Y1rE4LoA5VIZQ3jX-93">
          <mxGeometry width="50" height="50" relative="1" as="geometry">
            <mxPoint x="740" y="-1310" as="sourcePoint" />
            <mxPoint x="195" y="-820" as="targetPoint" />
          </mxGeometry>
        </mxCell>
        <mxCell id="8cZ1Y1rE4LoA5VIZQ3jX-93" value="" style="ellipse;whiteSpace=wrap;html=1;" vertex="1" parent="1">
          <mxGeometry x="145" y="-840" width="100" height="40" as="geometry" />
        </mxCell>
        <mxCell id="8cZ1Y1rE4LoA5VIZQ3jX-96" value="SI" style="text;html=1;strokeColor=none;fillColor=none;align=center;verticalAlign=middle;whiteSpace=wrap;rounded=0;fontSize=27;" vertex="1" parent="1">
          <mxGeometry x="220" y="-1200" width="60" height="30" as="geometry" />
        </mxCell>
        <mxCell id="8cZ1Y1rE4LoA5VIZQ3jX-97" value="SI" style="text;html=1;strokeColor=none;fillColor=none;align=center;verticalAlign=middle;whiteSpace=wrap;rounded=0;fontSize=27;" vertex="1" parent="1">
          <mxGeometry x="605" y="-1110" width="60" height="30" as="geometry" />
        </mxCell>
        <mxCell id="8cZ1Y1rE4LoA5VIZQ3jX-98" value="SI" style="text;html=1;strokeColor=none;fillColor=none;align=center;verticalAlign=middle;whiteSpace=wrap;rounded=0;fontSize=27;" vertex="1" parent="1">
          <mxGeometry x="905" y="-1080" width="60" height="30" as="geometry" />
        </mxCell>
        <mxCell id="8cZ1Y1rE4LoA5VIZQ3jX-99" value="SI" style="text;html=1;strokeColor=none;fillColor=none;align=center;verticalAlign=middle;whiteSpace=wrap;rounded=0;fontSize=27;" vertex="1" parent="1">
          <mxGeometry x="485" y="-1200" width="60" height="30" as="geometry" />
        </mxCell>
        <mxCell id="8cZ1Y1rE4LoA5VIZQ3jX-100" value="NO" style="text;html=1;strokeColor=none;fillColor=none;align=center;verticalAlign=middle;whiteSpace=wrap;rounded=0;fontSize=27;" vertex="1" parent="1">
          <mxGeometry x="680" y="-1190" width="60" height="30" as="geometry" />
        </mxCell>
        <mxCell id="8cZ1Y1rE4LoA5VIZQ3jX-101" value="NO" style="text;html=1;strokeColor=none;fillColor=none;align=center;verticalAlign=middle;whiteSpace=wrap;rounded=0;fontSize=27;" vertex="1" parent="1">
          <mxGeometry x="905" y="-1270" width="60" height="30" as="geometry" />
        </mxCell>
        <mxCell id="8cZ1Y1rE4LoA5VIZQ3jX-102" value="NO" style="text;html=1;strokeColor=none;fillColor=none;align=center;verticalAlign=middle;whiteSpace=wrap;rounded=0;fontSize=27;" vertex="1" parent="1">
          <mxGeometry x="390" y="-1080" width="60" height="30" as="geometry" />
        </mxCell>
        <mxCell id="8cZ1Y1rE4LoA5VIZQ3jX-103" value="NO" style="text;html=1;strokeColor=none;fillColor=none;align=center;verticalAlign=middle;whiteSpace=wrap;rounded=0;fontSize=27;" vertex="1" parent="1">
          <mxGeometry x="200" y="-1055" width="60" height="30" as="geometry" />
        </mxCell>
      </root>
    </mxGraphModel>
  </diagram>
</mxfile>
